<svg width="569" height="514" viewBox="0 0 569 514" fill="none" xmlns="http://www.w3.org/2000/svg">
<path d="M81.5853 470.482C190.372 528.506 366.751 528.506 475.526 470.482C584.3 412.458 584.312 318.326 475.526 260.367C366.739 202.407 190.372 202.343 81.5853 260.367C-27.2012 318.39 -27.189 412.471 81.5853 470.482Z" fill="#F5F5F5"/>
<path d="M437.36 377.795C443.329 381.388 455.046 380.148 463.527 375.033L512.454 345.382C520.947 340.267 522.982 333.209 517.013 329.604C511.044 325.998 499.34 327.277 490.846 332.391L441.944 362.068C433.45 367.144 431.403 374.202 437.36 377.795Z" fill="#EBEBEB"/>
<path d="M142.695 405.145L92.9102 375.161L142.695 345.177V405.145Z" fill="#EBEBEB"/>
<path d="M283.409 423.084L203.167 374.726L283.421 326.458L283.409 423.084Z" fill="#EBEBEB"/>
<path d="M75.3469 335.038C75.494 322.891 67.3559 297.613 55.455 281.694C43.5542 265.775 24.6551 253.999 11.1732 258.64C-1.45072 262.975 -0.286373 280.185 14.8501 291.782C29.9866 303.379 52.7219 317.981 59.2055 337.812L72.9937 362.106L75.3469 335.038Z" fill="#85A947"/>
<path opacity="0.1" d="M75.3469 335.038C75.494 322.891 67.3559 297.613 55.455 281.694C43.5542 265.775 24.6551 253.999 11.1732 258.64C-1.45072 262.975 -0.286373 280.185 14.8501 291.782C29.9866 303.379 52.7219 317.981 59.2055 337.812L72.9937 362.106L75.3469 335.038Z" fill="black"/>
<path d="M76.0209 351.673C75.8349 351.656 75.6595 351.575 75.522 351.443C75.3845 351.311 75.2928 351.136 75.261 350.944C67.9073 309.376 36.1636 275.262 17.007 267.578C16.8913 267.545 16.7834 267.487 16.6905 267.408C16.5975 267.329 16.5214 267.23 16.4672 267.119C16.413 267.007 16.3818 266.885 16.3757 266.76C16.3696 266.635 16.3887 266.51 16.4318 266.393C16.4749 266.276 16.541 266.17 16.6258 266.081C16.7106 265.993 16.8123 265.924 16.9242 265.879C17.0362 265.834 17.1559 265.814 17.2758 265.82C17.3956 265.827 17.5128 265.859 17.6199 265.916C37.1441 273.754 69.5006 308.43 76.9279 350.624C76.9492 350.738 76.9486 350.856 76.9262 350.97C76.9038 351.084 76.86 351.192 76.7974 351.288C76.7347 351.385 76.6544 351.467 76.5611 351.531C76.4678 351.595 76.3634 351.638 76.2538 351.66L76.0209 351.673Z" fill="white"/>
<path d="M69.7827 378.14C67.9933 371.287 60.1247 359.92 47.3047 350.445C33.112 339.973 15.0708 335.012 10.9894 326.944C6.08694 317.252 13.9677 308.251 28.6384 310.322C43.3092 312.394 68.9002 333.67 72.6751 365.201L69.7827 378.14Z" fill="#85A947"/>
<path d="M72.7117 371.005C72.548 370.991 72.3917 370.928 72.2614 370.824C72.131 370.72 72.0321 370.578 71.9763 370.417C60.1981 334.731 34.3619 321.932 22.3508 320.155C22.1281 320.123 21.9268 319.999 21.7912 319.812C21.6556 319.625 21.5968 319.39 21.6277 319.157C21.6585 318.925 21.7766 318.715 21.9559 318.574C22.1352 318.432 22.361 318.371 22.5837 318.403C35.8694 320.372 61.5708 333.414 73.5942 369.829C73.6653 370.053 73.65 370.297 73.5516 370.51C73.4533 370.722 73.2795 370.886 73.0671 370.967C72.9523 371.004 72.8315 371.017 72.7117 371.005Z" fill="white"/>
<path d="M509.917 300.426C509.917 300.426 511.547 274.853 526.009 255.802C540.472 236.75 539.589 228.951 529.613 225.115C519.636 221.279 496.521 244.23 501.619 274.853C506.718 305.476 509.917 300.426 509.917 300.426Z" fill="#85A947"/>
<path opacity="0.1" d="M509.917 300.426C509.917 300.426 511.547 274.853 526.009 255.802C540.472 236.75 539.589 228.951 529.613 225.115C519.636 221.279 496.521 244.23 501.619 274.853C506.718 305.476 509.917 300.426 509.917 300.426Z" fill="black"/>
<path d="M505.492 285.824C505.347 285.824 505.208 285.768 505.101 285.666C504.994 285.564 504.928 285.424 504.916 285.274C503.237 257.068 522.32 233.925 529.428 228.682C529.488 228.636 529.556 228.603 529.629 228.585C529.701 228.567 529.776 228.565 529.849 228.578C529.923 228.591 529.993 228.62 530.055 228.662C530.117 228.704 530.171 228.759 530.213 228.823C530.299 228.952 530.334 229.112 530.308 229.267C530.283 229.423 530.2 229.562 530.078 229.654C523.067 234.768 504.34 257.49 506.007 285.197C506.014 285.353 505.962 285.505 505.864 285.621C505.766 285.738 505.628 285.811 505.48 285.824H505.492Z" fill="white"/>
<path d="M505.982 321.6C512.495 323.82 519.167 325.496 525.935 326.612C537.138 328.453 542.089 322.865 542.089 322.865C542.089 322.865 537.677 311.908 531.316 308.801C538.198 310.414 544.77 313.228 550.754 317.124C550.754 317.124 557.593 317.24 560.314 306.346C560.314 306.346 556.27 299.786 542.665 296.245C542.665 296.245 550.938 294.071 562.864 297.242C563.758 297.613 567.57 283.535 568.722 277.04C569.874 270.544 567.374 270.647 562.52 269.253C557.667 267.859 541.574 264.138 538.535 266.913C535.495 269.688 533.951 279.226 533.951 279.226C532.747 275.321 532.59 271.147 533.498 267.156C533.498 267.156 529.134 265.379 522.344 267.437C516.805 269.112 516.535 273.05 516.78 277.5C517.108 281.365 517.932 285.167 519.231 288.803C519.231 288.803 514.905 283.024 514.77 270.48C514.77 270.48 503.421 276.362 501.484 288.125C500.357 294.506 498.861 313.212 505.982 321.6Z" fill="#85A947"/>
<path d="M508.115 319.324C508.234 319.323 508.351 319.288 508.453 319.223C508.554 319.157 508.637 319.064 508.691 318.953C517.724 299.352 551.343 276.579 563.378 274.137C563.46 274.122 563.538 274.09 563.607 274.043C563.677 273.996 563.737 273.935 563.784 273.863C563.83 273.792 563.863 273.712 563.88 273.627C563.896 273.542 563.897 273.455 563.881 273.37C563.845 273.199 563.748 273.049 563.608 272.951C563.469 272.853 563.299 272.815 563.133 272.846C550.877 275.339 516.731 298.418 507.551 318.378C507.479 318.535 507.47 318.716 507.525 318.882C507.58 319.047 507.695 319.183 507.845 319.26C507.93 319.299 508.022 319.321 508.115 319.324Z" fill="white"/>
<path d="M70.9589 387.193C69.5739 387.193 68.7405 386.004 68.7405 383.996V168.92L321.256 16.8533V231.061C321.169 232.849 320.68 234.591 319.828 236.146C318.976 237.701 317.786 239.025 316.353 240.011L72.9689 386.541C72.3651 386.938 71.672 387.163 70.9589 387.193Z" fill="#FAFAFA"/>
<path d="M320.496 18.1447V231.061C320.394 232.719 319.926 234.331 319.128 235.77C318.331 237.21 317.227 238.438 315.9 239.359L72.6137 385.889C72.1184 386.223 71.5481 386.417 70.9591 386.451C69.5986 386.451 69.4516 384.725 69.4516 383.996V169.354L320.496 18.1447ZM321.93 15.5874L68.0176 168.485V383.996C68.0176 386.553 69.2432 387.947 70.9591 387.947C71.7972 387.915 72.6127 387.655 73.3245 387.193L316.623 240.65C318.168 239.599 319.453 238.183 320.375 236.517C321.297 234.851 321.83 232.981 321.93 231.061V15.5491V15.5874Z" fill="#E0E0E0"/>
<path d="M68.0298 168.485V204.478L321.93 51.5422V15.5491L68.0298 168.485Z" fill="#85A947"/>
<path d="M87.9338 170.403V175.517C87.9338 176.566 88.657 177 89.5272 176.476L167.587 129.461V120.511L89.5272 167.526C89.0661 167.844 88.6821 168.269 88.4056 168.768C88.1291 169.268 87.9676 169.827 87.9338 170.403Z" fill="#FAFAFA"/>
<path d="M175.958 115.473C176.841 114.936 177.552 115.371 177.552 116.432V121.547C177.52 122.123 177.359 122.683 177.082 123.182C176.806 123.682 176.421 124.107 175.958 124.424L167.587 129.461V120.511L175.958 115.473Z" fill="#455A64"/>
<path d="M68.0176 156.888C68.1182 154.967 68.6511 153.098 69.5731 151.432C70.4951 149.766 71.7803 148.35 73.3245 147.298L316.623 0.755443C319.553 -1.00905 321.93 0.423001 321.93 3.95199V15.5491L68.0176 168.485V156.888Z" fill="#455A64"/>
<path d="M293.704 20.5869C292.987 21.0817 292.391 21.7459 291.965 22.5255C291.539 23.3052 291.295 24.1786 291.253 25.0749C291.253 26.7371 292.368 27.402 293.704 26.5837C294.422 26.0861 295.018 25.4196 295.444 24.6379C295.869 23.8561 296.113 22.981 296.155 22.0829C296.204 20.4079 295.089 19.7558 293.704 20.5869Z" fill="#85A947"/>
<path d="M301.646 15.8303C300.928 16.3251 300.333 16.9893 299.907 17.7689C299.481 18.5486 299.237 19.422 299.195 20.3183C299.195 21.9805 300.31 22.6454 301.646 21.8271C302.363 21.328 302.957 20.6612 303.383 19.8798C303.809 19.0983 304.053 18.2239 304.097 17.3263C304.097 15.6641 302.97 14.9992 301.646 15.8303Z" fill="#85A947"/>
<path d="M309.478 11.0739C308.76 11.5687 308.164 12.2328 307.739 13.0125C307.313 13.7922 307.069 14.6655 307.027 15.5618C307.027 17.224 308.142 17.8889 309.478 17.0706C310.194 16.5716 310.789 15.9047 311.215 15.1233C311.64 14.3418 311.885 13.4674 311.929 12.5698C311.966 10.9076 310.851 10.2428 309.478 11.0739Z" fill="#85A947"/>
<g opacity="0.1">
<path d="M242.265 74.9665C240.682 76.047 239.365 77.5015 238.422 79.2121C237.478 80.9227 236.935 82.8411 236.835 84.8119C236.835 88.4304 239.286 89.9264 242.265 88.0851C243.85 87.0089 245.169 85.5573 246.114 83.8487C247.06 82.1401 247.606 80.2227 247.707 78.2525C247.719 74.6341 245.268 73.1636 242.265 74.9665Z" fill="black"/>
<path d="M217.384 89.9647C215.799 91.041 214.48 92.4925 213.535 94.2011C212.589 95.9097 212.044 97.8271 211.943 99.7973C211.943 103.416 214.394 104.912 217.384 103.083C218.967 102.003 220.284 100.548 221.227 98.8378C222.171 97.1272 222.714 95.2087 222.814 93.238C222.814 89.6195 220.387 88.1746 217.384 89.9647Z" fill="black"/>
<path d="M267.157 60.0451C265.575 61.1228 264.258 62.5749 263.315 64.2835C262.371 65.992 261.827 67.9087 261.728 69.8777C261.728 73.4962 264.179 74.9922 267.157 73.1509C268.743 72.0754 270.063 70.6241 271.008 68.9153C271.954 67.2065 272.499 65.2887 272.599 63.3184C272.599 59.6359 270.172 58.1655 267.157 60.0451Z" fill="black"/>
<path d="M292.062 44.9574C290.477 46.0336 289.158 47.4852 288.212 49.1938C287.266 50.9024 286.721 52.8198 286.62 54.79C286.62 58.4085 289.071 59.9044 292.062 58.0632C293.647 56.987 294.966 55.5354 295.911 53.8268C296.857 52.1182 297.402 50.2008 297.503 48.2306C297.503 44.6122 295.064 43.1417 292.062 44.9574Z" fill="black"/>
</g>
<path d="M93.2899 207.278L152.377 171.681C155.306 169.917 157.684 171.349 157.684 174.878V234.065C157.584 235.986 157.051 237.855 156.129 239.521C155.207 241.188 153.922 242.604 152.377 243.655L93.2899 279.239C90.3606 281.003 87.9829 279.571 87.9829 276.042V216.868C88.0835 214.947 88.6164 213.078 89.5384 211.412C90.4604 209.746 91.7456 208.33 93.2899 207.278Z" fill="#E0E0E0"/>
<path d="M177.858 156.3L301.646 81.7815C304.575 80.0043 306.953 81.4363 306.953 84.9781V144.153C306.853 146.074 306.32 147.943 305.398 149.609C304.476 151.275 303.19 152.691 301.646 153.742L177.858 228.26C174.929 230.025 172.551 228.593 172.551 225.064V165.889C172.652 163.968 173.185 162.099 174.107 160.433C175.029 158.767 176.314 157.351 177.858 156.3Z" fill="#E0E0E0"/>
<path d="M93.2899 297.229L187.222 240.65C190.163 238.886 192.541 240.139 192.541 243.45C192.41 245.31 191.861 247.111 190.939 248.708C190.017 250.305 188.748 251.653 187.234 252.644L93.2899 309.223C90.3606 310.987 87.9829 309.734 87.9829 306.422C88.1139 304.563 88.6625 302.762 89.5845 301.165C90.5064 299.568 91.7758 298.219 93.2899 297.229Z" fill="#E0E0E0"/>
<path d="M93.2899 318.224L187.222 261.645C190.163 259.881 192.541 261.134 192.541 264.445C192.41 266.305 191.861 268.106 190.939 269.703C190.017 271.3 188.748 272.648 187.234 273.639L93.2899 330.218C90.3606 331.982 87.9829 330.729 87.9829 327.417C88.1139 325.558 88.6625 323.757 89.5845 322.16C90.5064 320.563 91.7758 319.214 93.2899 318.224Z" fill="#E0E0E0"/>
<path d="M93.2899 339.206L187.222 282.627C190.163 280.863 192.541 282.116 192.541 285.427C192.41 287.287 191.861 289.088 190.939 290.685C190.017 292.282 188.748 293.63 187.234 294.621L93.2899 351.2C90.3606 352.964 87.9829 351.711 87.9829 348.4C88.1139 346.54 88.6625 344.739 89.5845 343.142C90.5064 341.545 91.7758 340.197 93.2899 339.206Z" fill="#E0E0E0"/>
<path d="M137.719 268.038C137.782 266.886 138.103 265.765 138.656 264.766C139.21 263.766 139.98 262.917 140.906 262.284L303.803 164.176C304.791 163.653 305.883 163.38 306.99 163.38C308.097 163.38 309.189 163.653 310.177 164.176L313.768 166.337C314.693 166.968 315.463 167.818 316.014 168.818C316.566 169.817 316.884 170.939 316.942 172.091V302.356C316.882 303.508 316.563 304.628 316.012 305.628C315.46 306.627 314.692 307.477 313.768 308.11L150.894 406.219C149.907 406.742 148.815 407.015 147.708 407.015C146.6 407.015 145.509 406.742 144.521 406.219L140.93 404.058C140.004 403.426 139.233 402.577 138.679 401.577C138.126 400.578 137.805 399.456 137.744 398.304L137.719 268.038Z" fill="#85A947"/>
<path opacity="0.4" d="M138.638 264.765L147.683 270.212L315.998 168.817C315.46 167.805 314.689 166.949 313.755 166.324L310.226 164.176C309.243 163.653 308.155 163.38 307.051 163.38C305.948 163.38 304.86 163.653 303.877 164.176L140.906 262.284C139.961 262.898 139.181 263.752 138.638 264.765Z" fill="white"/>
<path opacity="0.1" d="M137.719 268.038V398.304C137.781 399.456 138.101 400.578 138.655 401.577C139.208 402.577 139.979 403.426 140.906 404.058L144.497 406.219C144.773 406.386 145.064 406.523 145.367 406.628C145.793 406.778 146.232 406.885 146.678 406.947C147.516 407.055 148.364 407.02 149.191 406.845C149.403 406.805 149.611 406.749 149.816 406.679L150.196 406.526C149.954 406.634 149.693 406.69 149.43 406.69C149.166 406.69 148.906 406.634 148.664 406.526C148.325 406.29 148.055 405.961 147.884 405.575C147.713 405.189 147.648 404.761 147.696 404.339V274.048C147.663 273.455 147.804 272.867 148.1 272.36C148.395 271.853 148.831 271.452 149.35 271.209L147.696 270.212L138.638 264.765C138.07 265.757 137.754 266.883 137.719 268.038Z" fill="black"/>
<path opacity="0.2" d="M147.695 270.212L223.133 299.62C225.741 300.635 228.603 300.692 231.248 299.783C233.892 298.875 236.161 297.054 237.681 294.621L249.79 275.263L316.611 168.459L252.205 275.991L316.942 302.42C316.888 303.595 316.547 304.735 315.949 305.732L252.033 276.324L237.914 299.786C236.35 302.393 233.937 304.325 231.119 305.226C228.301 306.128 225.265 305.94 222.569 304.696L212.543 300.081L148.664 406.551C148.325 406.316 148.054 405.987 147.884 405.601C147.713 405.215 147.648 404.787 147.695 404.365V402.204L212.261 300.004L147.695 270.212Z" fill="black"/>
<path d="M282.097 120.664V419.734C282.097 423.263 284.475 424.695 287.404 422.93L416.193 345.356C417.737 344.305 419.022 342.889 419.944 341.223C420.866 339.557 421.399 337.688 421.5 335.767V36.6975C421.5 33.1685 419.122 31.7364 416.193 33.5009L287.404 111.075C285.859 112.125 284.573 113.54 283.65 115.207C282.728 116.873 282.196 118.743 282.097 120.664Z" fill="#FAFAFA" stroke="#E0E0E0" stroke-width="1.16981" stroke-miterlimit="10"/>
<path d="M289.562 126.226C289.603 125.753 289.75 125.296 289.99 124.892C290.231 124.488 290.558 124.148 290.946 123.899L305.654 115.064C306.414 114.604 307.027 114.911 307.027 115.742C306.988 116.214 306.843 116.671 306.605 117.075C306.366 117.479 306.041 117.819 305.654 118.069L290.946 126.904C290.187 127.364 289.562 127.058 289.562 126.226Z" fill="#455A64"/>
<path d="M289.562 132.185C289.602 131.711 289.748 131.254 289.989 130.85C290.229 130.445 290.557 130.106 290.946 129.858L305.654 121.022C306.414 120.562 307.027 120.869 307.027 121.687C306.989 122.162 306.846 122.621 306.607 123.028C306.369 123.434 306.042 123.777 305.654 124.027L290.946 132.85C290.187 133.31 289.562 133.016 289.562 132.185Z" fill="#455A64"/>
<path d="M289.562 138.143C289.602 137.669 289.748 137.212 289.989 136.808C290.229 136.404 290.557 136.064 290.946 135.816L305.654 126.981C306.414 126.521 307.027 126.815 307.027 127.646C306.99 128.119 306.846 128.576 306.607 128.981C306.369 129.385 306.042 129.725 305.654 129.973L290.946 138.808C290.187 139.32 289.562 138.974 289.562 138.143Z" fill="#455A64"/>
<path d="M411.548 61.4516V59.0605C411.549 59.0315 411.543 59.0026 411.53 58.9769C411.517 58.9512 411.497 58.9295 411.474 58.914C411.45 58.8984 411.423 58.8896 411.395 58.8884C411.367 58.8872 411.34 58.8937 411.315 58.9071L409.55 59.7382C409.522 59.7526 409.492 59.7602 409.461 59.7607C409.43 59.7612 409.399 59.7544 409.371 59.741C409.343 59.7275 409.318 59.7076 409.298 59.6828C409.278 59.658 409.264 59.6289 409.256 59.5976C409.163 59.2788 409.031 58.9738 408.864 58.6897C408.83 58.6203 408.813 58.5437 408.813 58.466C408.813 58.3883 408.83 58.3117 408.864 58.2422L410.089 55.7617C410.12 55.6988 410.125 55.6261 410.104 55.5592C410.084 55.4922 410.039 55.4364 409.979 55.4037L408.753 54.6365C408.696 54.6058 408.629 54.5979 408.566 54.6144C408.503 54.6308 408.447 54.6705 408.41 54.726L406.939 57.0275C406.896 57.0892 406.838 57.1389 406.772 57.1724C406.706 57.2058 406.633 57.2219 406.56 57.2193C406.238 57.2166 405.918 57.2509 405.604 57.3216C405.574 57.3313 405.542 57.3339 405.511 57.329C405.48 57.3242 405.45 57.3121 405.424 57.2936C405.398 57.2752 405.377 57.2509 405.361 57.2225C405.346 57.1942 405.336 57.1625 405.334 57.1298L405.138 55.1224C405.138 54.9817 405.015 54.9178 404.905 54.9945L402.919 56.1837C402.857 56.2266 402.803 56.283 402.763 56.3492C402.723 56.4153 402.697 56.4897 402.687 56.5672L402.49 58.8688C402.464 59.0321 402.392 59.1835 402.282 59.3035C401.884 59.7004 401.516 60.1278 401.179 60.5821C401.132 60.6395 401.069 60.681 401 60.7015C400.93 60.722 400.856 60.7205 400.787 60.6972L399.561 60.2369C399.495 60.2152 399.425 60.2172 399.36 60.2427C399.296 60.2683 399.241 60.3158 399.206 60.3775L397.747 63.0115C397.718 63.074 397.708 63.1447 397.719 63.2136C397.73 63.2824 397.761 63.3459 397.809 63.3951L398.838 64.3157C398.889 64.3682 398.924 64.434 398.942 64.5061C398.959 64.5781 398.957 64.6538 398.936 64.7248C398.747 65.2507 398.592 65.7888 398.47 66.3359C398.429 66.4909 398.344 66.6292 398.225 66.7323L396.411 68.0109C396.351 68.0597 396.301 68.1215 396.265 68.1921C396.229 68.2626 396.208 68.3403 396.203 68.42V70.7983C396.197 70.8289 396.2 70.8607 396.212 70.8894C396.223 70.9182 396.243 70.9425 396.269 70.9592C396.294 70.9759 396.323 70.9841 396.353 70.9827C396.383 70.9814 396.412 70.9706 396.436 70.9517L398.201 70.1206C398.23 70.1087 398.261 70.1032 398.292 70.1046C398.323 70.106 398.353 70.1142 398.381 70.1287C398.408 70.1432 398.433 70.1636 398.453 70.1887C398.472 70.2137 398.487 70.2428 398.495 70.274C398.588 70.5928 398.72 70.8979 398.887 71.1819C398.921 71.2513 398.938 71.3279 398.938 71.4056C398.938 71.4833 398.921 71.5599 398.887 71.6294L397.662 74.0971C397.634 74.1624 397.629 74.236 397.65 74.3042C397.67 74.3724 397.713 74.4306 397.772 74.4679L398.997 75.2351C399.055 75.2658 399.122 75.2737 399.185 75.2572C399.248 75.2408 399.303 75.2011 399.341 75.1456L400.811 72.8441C400.855 72.7824 400.912 72.7327 400.979 72.6992C401.045 72.6658 401.118 72.6497 401.191 72.6523C401.513 72.655 401.833 72.6207 402.147 72.55C402.177 72.5403 402.209 72.5377 402.24 72.5426C402.271 72.5474 402.301 72.5595 402.327 72.578C402.352 72.5964 402.374 72.6207 402.39 72.6491C402.405 72.6774 402.415 72.7091 402.417 72.7418L402.613 74.7492C402.613 74.8899 402.723 74.9538 402.846 74.8771L404.831 73.688C404.894 73.6419 404.947 73.5829 404.987 73.5148C405.027 73.4466 405.053 73.3707 405.064 73.2916L405.26 70.9901C405.285 70.8297 405.358 70.6817 405.469 70.5681C405.866 70.1712 406.235 69.7438 406.572 69.2895C406.619 69.2321 406.681 69.1906 406.751 69.1701C406.821 69.1496 406.895 69.1511 406.964 69.1744L408.19 69.6347C408.255 69.6565 408.326 69.6544 408.391 69.6289C408.455 69.6033 408.51 69.5558 408.545 69.4941L410.004 66.8601C410.035 66.7948 410.044 66.7206 410.031 66.649C410.018 66.5773 409.982 66.5122 409.93 66.4637L408.913 65.5559C408.862 65.5034 408.827 65.4376 408.809 65.3655C408.792 65.2935 408.794 65.2178 408.815 65.1468C409.003 64.6209 409.159 64.0828 409.28 63.5357C409.315 63.3777 409.402 63.2373 409.526 63.1393L411.339 61.8607C411.399 61.8108 411.448 61.7488 411.484 61.6784C411.52 61.6081 411.541 61.5309 411.548 61.4516ZM403.79 68.9954C401.939 70.1206 400.444 69.2128 400.444 66.988C400.501 65.7734 400.834 64.5905 401.416 63.5367C401.998 62.483 402.811 61.5886 403.79 60.9273C405.64 59.8149 407.136 60.7227 407.136 62.9475C407.076 64.1599 406.742 65.3403 406.16 66.3917C405.579 67.443 404.766 68.3354 403.79 68.9954Z" fill="#37474F"/>
<path d="M351.799 120.396C366.85 111.33 379.045 118.683 379.045 136.813C379.045 154.944 366.85 176.975 351.799 186.04C336.748 195.106 324.553 187.754 324.553 169.636C324.553 151.517 336.748 129.461 351.799 120.396Z" fill="#455A64"/>
<path d="M351.615 134.665C356.518 131.725 360.452 134.103 360.452 139.984C360.284 143.181 359.396 146.292 357.861 149.064C356.326 151.837 354.186 154.193 351.615 155.942C346.713 158.882 342.766 156.504 342.766 150.623C342.934 147.424 343.823 144.312 345.361 141.54C346.899 138.767 349.041 136.412 351.615 134.665Z" fill="#85A947"/>
<path d="M369.056 166.017C369.056 156.364 362.548 152.438 354.532 157.271L349.446 160.289C341.43 165.122 334.922 176.911 334.922 186.539V189.186C336.435 189.69 338.015 189.945 339.604 189.94C343.904 189.788 348.091 188.465 351.75 186.104C358.751 181.618 364.671 175.516 369.056 168.268V166.017Z" fill="#85A947"/>
<path d="M327.213 213.006L376.409 183.381C377.868 182.499 379.057 183.125 379.057 184.787C378.991 185.715 378.717 186.614 378.257 187.411C377.797 188.208 377.164 188.882 376.409 189.378L327.225 219.003C325.754 219.898 324.566 219.259 324.566 217.609C324.629 216.679 324.902 215.778 325.362 214.978C325.822 214.178 326.456 213.503 327.213 213.006Z" fill="#85A947"/>
<path d="M321.93 234.206L381.667 198.136C383.138 197.254 384.327 197.88 384.327 199.543C384.26 200.472 383.985 201.372 383.523 202.169C383.061 202.967 382.425 203.639 381.667 204.133L321.93 240.203C320.46 241.085 319.271 240.458 319.271 238.796C319.337 237.867 319.613 236.967 320.075 236.17C320.537 235.372 321.173 234.699 321.93 234.206Z" fill="#455A64"/>
<path d="M383.261 227.212L399.99 217.136C400.873 216.612 401.584 216.855 401.584 217.686C401.517 218.196 401.339 218.683 401.063 219.108C400.786 219.534 400.419 219.888 399.99 220.141L383.261 230.217C382.39 230.741 381.667 230.498 381.667 229.68C381.734 229.169 381.913 228.681 382.189 228.253C382.465 227.825 382.832 227.469 383.261 227.212Z" fill="#37474F"/>
<path d="M299.685 271.567L324.259 256.774C325.717 255.891 326.906 256.607 326.906 258.372V275.966C326.856 276.925 326.59 277.859 326.13 278.692C325.67 279.525 325.029 280.233 324.259 280.761L299.685 295.554C298.227 296.436 297.038 295.72 297.038 293.956V276.362C297.088 275.402 297.354 274.469 297.814 273.636C298.274 272.803 298.915 272.094 299.685 271.567Z" fill="#85A947"/>
<path d="M303.607 274.022L320.337 263.947C321.219 263.422 321.93 263.665 321.93 264.484C321.866 264.996 321.688 265.485 321.412 265.913C321.135 266.341 320.767 266.697 320.337 266.951L303.607 277.027C302.725 277.551 302.014 277.308 302.014 276.49C302.078 275.978 302.256 275.489 302.532 275.061C302.809 274.632 303.177 274.277 303.607 274.022Z" fill="#FAFAFA"/>
<path d="M302.014 282.896V288.01C302.014 289.072 302.725 289.494 303.607 288.969L320.337 278.894C320.801 278.579 321.187 278.154 321.464 277.654C321.74 277.154 321.9 276.593 321.93 276.017V270.902C321.93 269.841 321.219 269.419 320.337 269.943L303.607 279.968C303.138 280.289 302.749 280.723 302.472 281.232C302.195 281.741 302.038 282.311 302.014 282.896Z" fill="#FAFAFA"/>
<path d="M339.518 247.58L364.03 232.787C365.501 231.904 366.69 232.62 366.69 234.385V251.979C366.64 252.94 366.373 253.875 365.911 254.709C365.449 255.542 364.804 256.249 364.03 256.774L339.518 271.567C338.047 272.449 336.871 271.733 336.871 269.969V252.375C336.918 251.415 337.183 250.48 337.643 249.646C338.103 248.813 338.746 248.105 339.518 247.58Z" fill="#85A947"/>
<path d="M343.44 250.035L360.17 239.96C361.04 239.435 361.751 239.678 361.751 240.497C361.686 241.007 361.51 241.495 361.236 241.922C360.962 242.35 360.597 242.707 360.17 242.964L343.44 253.04C342.558 253.564 341.847 253.321 341.847 252.49C341.913 251.981 342.092 251.494 342.368 251.068C342.644 250.642 343.011 250.289 343.44 250.035Z" fill="#FAFAFA"/>
<path d="M341.847 258.909V264.023C341.847 265.085 342.558 265.507 343.44 264.982L360.17 254.907C360.63 254.589 361.013 254.163 361.287 253.664C361.562 253.164 361.721 252.605 361.751 252.03V246.916C361.751 245.854 361.028 245.432 360.158 245.957L343.428 256.032C342.966 256.348 342.583 256.774 342.308 257.274C342.034 257.773 341.875 258.334 341.847 258.909Z" fill="#FAFAFA"/>
<path d="M379.351 223.593L403.863 208.787C405.322 207.905 406.511 208.621 406.511 210.385V227.992C406.46 228.951 406.194 229.885 405.734 230.718C405.274 231.551 404.634 232.259 403.863 232.787L379.351 247.58C377.88 248.462 376.691 247.746 376.691 245.982V228.388C376.741 227.427 377.008 226.492 377.47 225.658C377.932 224.825 378.577 224.118 379.351 223.593Z" fill="#85A947"/>
<path d="M383.261 226.048L399.99 216.037C400.873 215.5 401.584 215.743 401.584 216.574C401.52 217.084 401.343 217.572 401.066 217.999C400.79 218.425 400.421 218.778 399.99 219.029L383.261 229.104C382.39 229.641 381.667 229.398 381.667 228.567C381.724 228.046 381.899 227.547 382.175 227.109C382.452 226.672 382.824 226.308 383.261 226.048Z" fill="#FAFAFA"/>
<path d="M381.667 234.922V240.036C381.667 241.085 382.39 241.52 383.261 240.995L399.99 230.907C400.455 230.593 400.841 230.168 401.118 229.668C401.395 229.168 401.555 228.607 401.584 228.03V222.916C401.584 221.854 400.873 221.42 399.99 221.957L383.261 232.032C382.796 232.349 382.409 232.776 382.132 233.278C381.856 233.78 381.696 234.344 381.667 234.922Z" fill="#FAFAFA"/>
<path d="M302.345 311.933L401.253 252.362C404.194 250.598 406.56 251.851 406.56 255.163C406.432 257.023 405.884 258.825 404.962 260.422C404.04 262.02 402.769 263.368 401.253 264.356L302.345 323.927C299.416 325.691 297.038 324.438 297.038 321.127C297.169 319.267 297.717 317.466 298.639 315.869C299.561 314.272 300.831 312.924 302.345 311.933Z" fill="#E0E0E0"/>
<path d="M302.345 335.933L401.253 276.362C404.194 274.598 406.56 275.851 406.56 279.162C406.432 281.022 405.884 282.825 404.962 284.422C404.04 286.02 402.769 287.367 401.253 288.355L302.345 347.939C299.416 349.704 297.038 348.451 297.038 345.126C297.169 343.267 297.717 341.466 298.639 339.869C299.561 338.272 300.831 336.923 302.345 335.933Z" fill="#E0E0E0"/>
<path d="M334.542 346.533L369.055 325.742C370.526 324.86 371.715 325.576 371.715 327.341V338.938C371.665 339.899 371.398 340.834 370.936 341.668C370.474 342.501 369.829 343.208 369.055 343.733L334.542 364.523C333.071 365.405 331.882 364.689 331.882 362.925V351.328C331.932 350.366 332.199 349.431 332.661 348.598C333.124 347.764 333.768 347.057 334.542 346.533Z" fill="#85A947"/>
<path d="M304.502 313.71C303.784 314.208 303.188 314.875 302.762 315.656C302.337 316.438 302.093 317.313 302.051 318.211C302.051 319.861 303.166 320.538 304.502 319.707C305.22 319.21 305.816 318.543 306.241 317.761C306.667 316.98 306.911 316.104 306.953 315.206C306.99 313.557 305.875 312.879 304.502 313.71Z" fill="#FAFAFA"/>
<path d="M312.395 308.954C311.676 309.45 311.079 310.116 310.653 310.898C310.227 311.68 309.984 312.556 309.944 313.455C309.944 315.104 311.047 315.782 312.395 314.951C313.113 314.453 313.709 313.787 314.135 313.005C314.56 312.223 314.804 311.348 314.846 310.45C314.883 308.801 313.768 308.097 312.395 308.954Z" fill="#FAFAFA"/>
<path d="M320.276 304.262C319.558 304.759 318.962 305.426 318.536 306.207C318.11 306.989 317.867 307.864 317.824 308.762C317.824 310.412 318.94 311.089 320.276 310.258C320.993 309.761 321.589 309.094 322.015 308.313C322.441 307.531 322.685 306.656 322.727 305.758C322.764 304.044 321.648 303.367 320.276 304.262Z" fill="#FAFAFA"/>
<path d="M328.169 299.441C327.45 299.938 326.854 300.604 326.428 301.386C326.002 302.168 325.759 303.044 325.717 303.942C325.717 305.591 326.833 306.269 328.169 305.438C328.887 304.94 329.482 304.274 329.908 303.492C330.334 302.71 330.578 301.835 330.62 300.937C330.657 299.288 329.541 298.61 328.169 299.441Z" fill="#FAFAFA"/>
<path d="M336.05 294.685C335.332 295.182 334.736 295.849 334.31 296.631C333.884 297.412 333.641 298.287 333.598 299.185C333.598 300.835 334.714 301.513 336.05 300.681C336.768 300.184 337.363 299.517 337.789 298.736C338.215 297.954 338.459 297.079 338.501 296.181C338.538 294.531 337.422 293.854 336.05 294.685Z" fill="#FAFAFA"/>
<path d="M343.93 289.928C343.212 290.426 342.616 291.092 342.191 291.874C341.765 292.656 341.521 293.531 341.479 294.429C341.479 296.078 342.594 296.756 343.93 295.925C344.649 295.429 345.246 294.763 345.672 293.981C346.098 293.199 346.341 292.323 346.381 291.424C346.418 289.775 345.315 289.097 343.93 289.928Z" fill="#FAFAFA"/>
<path d="M351.823 285.172C351.105 285.669 350.509 286.336 350.084 287.118C349.658 287.899 349.414 288.774 349.372 289.673C349.372 291.322 350.487 292 351.823 291.169C352.541 290.671 353.137 290.004 353.563 289.223C353.988 288.441 354.232 287.566 354.274 286.668C354.348 285.082 353.196 284.341 351.823 285.172Z" fill="#FAFAFA"/>
<path d="M304.502 337.723C303.785 338.222 303.191 338.889 302.765 339.67C302.339 340.452 302.095 341.326 302.051 342.224C302.051 343.886 303.166 344.551 304.502 343.72C305.22 343.225 305.815 342.561 306.241 341.781C306.667 341.001 306.911 340.128 306.953 339.232C306.99 337.57 305.875 336.905 304.502 337.723Z" fill="#FAFAFA"/>
<path d="M312.395 332.967C311.677 333.463 311.08 334.13 310.654 334.912C310.229 335.694 309.985 336.569 309.944 337.467C309.944 339.13 311.047 339.794 312.395 338.963C313.113 338.469 313.709 337.804 314.134 337.025C314.56 336.245 314.804 335.372 314.846 334.475C314.883 332.813 313.768 332.148 312.395 332.967Z" fill="#FAFAFA"/>
<path d="M320.276 328.21C319.559 328.709 318.964 329.376 318.539 330.157C318.113 330.939 317.868 331.813 317.824 332.711C317.824 334.373 318.94 335.038 320.276 334.207C320.993 333.712 321.589 333.048 322.015 332.268C322.441 331.488 322.685 330.615 322.727 329.719C322.764 328.057 321.648 327.379 320.276 328.21Z" fill="#FAFAFA"/>
<path d="M328.169 323.441C327.451 323.938 326.855 324.605 326.429 325.387C326.003 326.168 325.76 327.043 325.717 327.942C325.717 329.604 326.833 330.269 328.169 329.438C328.886 328.943 329.482 328.279 329.908 327.499C330.334 326.719 330.578 325.846 330.62 324.95C330.657 323.3 329.541 322.622 328.169 323.441Z" fill="#FAFAFA"/>
<path d="M336.05 318.697C335.332 319.195 334.736 319.861 334.31 320.643C333.884 321.425 333.641 322.3 333.598 323.198C333.598 324.86 334.714 325.525 336.05 324.694C336.767 324.199 337.363 323.535 337.789 322.755C338.215 321.976 338.459 321.102 338.501 320.206C338.538 318.544 337.422 317.866 336.05 318.697Z" fill="#FAFAFA"/>
<path d="M343.93 313.941C343.212 314.438 342.616 315.105 342.191 315.886C341.765 316.668 341.521 317.543 341.479 318.441C341.479 320.104 342.594 320.769 343.93 319.937C344.651 319.443 345.249 318.777 345.675 317.995C346.101 317.212 346.343 316.336 346.381 315.437C346.418 313.787 345.315 313.11 343.93 313.941Z" fill="#FAFAFA"/>
<path d="M351.823 309.184C351.105 309.682 350.509 310.348 350.084 311.13C349.658 311.912 349.414 312.787 349.372 313.685C349.372 315.347 350.487 316.012 351.823 315.181C352.542 314.684 353.138 314.018 353.564 313.236C353.99 312.454 354.233 311.578 354.274 310.68C354.348 309.031 353.196 308.353 351.823 309.184Z" fill="#FAFAFA"/>
<path d="M462.436 363.244C458.2 363.275 454.033 362.127 450.363 359.92C441.527 354.588 436.465 343.464 436.465 329.361C436.465 304.581 451.565 276.081 470.782 264.471C481.163 258.218 491.471 257.541 499.817 262.566C508.642 267.885 513.716 279.022 513.716 293.112C513.716 317.892 498.616 346.405 479.337 358.015C474.238 361.269 468.411 363.072 462.436 363.244ZM487.757 277.091C484.774 277.311 481.889 278.3 479.362 279.968C465.39 288.343 453.624 310.987 453.624 329.361C453.624 336.802 455.621 342.454 458.967 344.461C462.779 346.763 468.086 344.257 470.893 342.556C484.902 334.13 496.717 311.486 496.717 293.112C496.717 285.67 494.719 280.032 491.373 278.012C490.27 277.368 489.02 277.05 487.757 277.091Z" fill="#455A64"/>
<path d="M499.719 297.076C499.719 283.152 491.312 278.011 491.312 278.011C494.658 280.032 496.655 285.683 496.655 293.112C496.655 311.486 484.84 334.13 470.831 342.556C468.025 344.257 462.73 346.763 458.906 344.461C458.906 344.461 466.003 349.064 475.808 343.477C490 335.409 499.719 315.449 499.719 297.076Z" fill="#37474F"/>
<path d="M486.238 123.068C486.153 120.681 485.184 118.421 483.535 116.764C481.886 115.106 479.685 114.18 477.395 114.18C475.105 114.18 472.904 115.106 471.255 116.764C469.606 118.421 468.637 120.681 468.552 123.068V269.739C468.615 270.561 468.889 271.35 469.343 272.025C469.798 272.7 470.418 273.235 471.138 273.575C473.076 274.596 475.217 275.128 477.389 275.128C479.56 275.128 481.701 274.596 483.639 273.575C484.363 273.238 484.986 272.703 485.443 272.029C485.9 271.354 486.175 270.563 486.238 269.739V123.094V123.068Z" fill="#37474F"/>
<path d="M479.178 155.852C479.081 154.003 478.568 152.203 477.68 150.599C476.792 148.995 475.554 147.632 474.067 146.62C473.542 146.219 472.922 145.976 472.273 145.917C471.625 145.859 470.973 145.987 470.39 146.288L448.599 159.394L448.072 159.713C447.991 159.748 447.917 159.795 447.851 159.854C447.48 160.116 447.131 160.411 446.809 160.736C445.58 162.015 444.833 163.711 444.703 165.516C444.574 167.322 445.071 169.116 446.104 170.57C447.137 172.025 448.637 173.043 450.331 173.44C452.024 173.836 453.797 173.584 455.327 172.73L455.744 172.474L477.695 159.292C478.212 158.906 478.621 158.385 478.881 157.781C479.142 157.176 479.244 156.511 479.178 155.852Z" fill="#455A64"/>
<path d="M479.178 192.574C479.079 190.727 478.565 188.93 477.677 187.328C476.789 185.727 475.553 184.366 474.067 183.355C473.544 182.949 472.924 182.702 472.275 182.641C471.626 182.58 470.974 182.708 470.39 183.01L444.824 198.353L444.297 198.673C444.217 198.709 444.143 198.757 444.076 198.814C443.702 199.072 443.354 199.368 443.034 199.696C442.236 200.525 441.634 201.537 441.275 202.651C440.917 203.765 440.812 204.951 440.969 206.115C441.126 207.278 441.54 208.388 442.18 209.356C442.819 210.323 443.665 211.122 444.652 211.689C445.716 212.279 446.903 212.586 448.108 212.584C449.31 212.59 450.494 212.283 451.552 211.689C451.699 211.613 451.834 211.51 451.969 211.434L477.707 196.09C478.233 195.697 478.648 195.162 478.907 194.543C479.166 193.925 479.259 193.244 479.178 192.574Z" fill="#455A64"/>
</svg>
